<svg width="159" height="165" viewBox="0 0 159 165" fill="none" xmlns="http://www.w3.org/2000/svg">
<path d="M121 120.5V31.5M121 120.5H94.5M121 120.5L143.5 114.5V99M28 31.5H3M28 31.5V45.5M28 31.5L51.25 2M28 31.5H53.5M121 31.5H143.5M121 31.5H100.5M121 31.5L128.5 2M3 31.5L33 2H51.25M3 31.5L28 45.5M128.5 2L156 31.5M128.5 2H109.5M156 31.5H143.5M156 31.5L143.5 45.5M53.5 120.5H28V99M53.5 120.5V69H94.5V120.5M53.5 120.5H94.5M97.75 58.5H85.5V49.5M97.75 58.5H110V49.5M97.75 58.5V49.5M97.75 40.5H110V49.5M97.75 40.5H85.5V49.5M97.75 40.5V49.5M85.5 49.5H97.75M110 49.5H97.75M51.25 58.5H38V49.5M51.25 58.5H64.5V49.5M51.25 58.5V49.5M51.25 40.5H64.5V49.5M51.25 40.5H38V49.5M51.25 40.5V49.5M38 49.5H51.25M64.5 49.5H51.25M143.5 31.5V45.5M28 45.5V99M143.5 45.5V99M28 99H15L3 132M3 132V163.5H22.5V147.75M3 132H22.5M156 132V99H143.5M156 132H130.5M156 132V144.5L130.5 147.75M22.5 132V147.75M22.5 132H40.5M22.5 147.75L40.5 132M22.5 147.75L40.5 163.5M40.5 132V163.5M40.5 132H58.5M40.5 163.5H58.5V132M58.5 132H71.5M71.5 132V163.5H75.5L82 147.75M71.5 132H90.5M90.5 132L97.75 147.75M90.5 132L82 147.75M90.5 132H105M97.75 147.75L105 163.5V132M97.75 147.75H82M105 132L118 147.75L130.5 132M105 132H130.5M130.5 132V147.75M130.5 147.75V163.5H156V152L130.5 147.75ZM51.25 2H71.5M71.5 2L53.5 31.5M71.5 2H90.5M53.5 31.5H75.5M90.5 2L75.5 31.5M90.5 2H109.5M75.5 31.5H100.5M109.5 2L100.5 31.5M81.5 88V92.5H85.5V88H81.5Z" stroke="black" stroke-width="3"/>
</svg>
